<mxfile host="65bd71144e">
    <diagram id="yhwySS_0Jf-HkyM_2t8f" name="Page-1">
        <mxGraphModel dx="489" dy="427" grid="1" gridSize="10" guides="1" tooltips="1" connect="1" arrows="1" fold="1" page="1" pageScale="1" pageWidth="850" pageHeight="1100" background="#ffffff" math="0" shadow="0">
            <root>
                <mxCell id="0"/>
                <mxCell id="1" parent="0"/>
                <mxCell id="oqlOQNgqCjXcowSM-4Zz-44" style="edgeStyle=none;html=1;exitX=0.5;exitY=0;exitDx=0;exitDy=0;entryX=1;entryY=0.5;entryDx=0;entryDy=0;fontColor=#FFFFFF;fillColor=#0050ef;strokeColor=#001DBC;" edge="1" parent="1" source="16" target="20">
                    <mxGeometry relative="1" as="geometry"/>
                </mxCell>
                <mxCell id="oqlOQNgqCjXcowSM-4Zz-46" style="edgeStyle=none;html=1;exitX=0;exitY=0.25;exitDx=0;exitDy=0;entryX=0.977;entryY=0.75;entryDx=0;entryDy=0;entryPerimeter=0;fontColor=#FFFFFF;fillColor=#0050ef;strokeColor=#001DBC;" edge="1" parent="1" source="16" target="19">
                    <mxGeometry relative="1" as="geometry"/>
                </mxCell>
                <mxCell id="oqlOQNgqCjXcowSM-4Zz-49" style="edgeStyle=none;html=1;exitX=0;exitY=0.5;exitDx=0;exitDy=0;entryX=1;entryY=0.5;entryDx=0;entryDy=0;fontColor=#FFFFFF;fillColor=#0050ef;strokeColor=#001DBC;" edge="1" parent="1" source="16" target="18">
                    <mxGeometry relative="1" as="geometry"/>
                </mxCell>
                <mxCell id="oqlOQNgqCjXcowSM-4Zz-51" style="edgeStyle=none;html=1;exitX=0;exitY=1;exitDx=0;exitDy=0;fontColor=#FFFFFF;fillColor=#0050ef;strokeColor=#001DBC;" edge="1" parent="1" source="16" target="17">
                    <mxGeometry relative="1" as="geometry"/>
                </mxCell>
                <mxCell id="16" value="&lt;span&gt;Gymnasium&lt;/span&gt;" style="whiteSpace=wrap;html=1;aspect=fixed;fontColor=#ffffff;fillColor=#0050ef;strokeColor=#001DBC;" vertex="1" parent="1">
                    <mxGeometry x="150" y="120" width="80" height="80" as="geometry"/>
                </mxCell>
                <mxCell id="17" value="&lt;span style=&quot;font-size:12.0pt;line-height:107%;&lt;br/&gt;font-family:&amp;quot;Segoe UI&amp;quot;,sans-serif;mso-fareast-font-family:&amp;quot;Times New Roman&amp;quot;;&lt;br/&gt;color:#374151;mso-font-kerning:0pt;mso-ligatures:none;mso-ansi-language:EN-US;&lt;br/&gt;mso-fareast-language:EN-US;mso-bidi-language:AR-SA&quot;&gt;GymnasiumID&lt;/span&gt;" style="ellipse;whiteSpace=wrap;html=1;fontColor=#ffffff;fillColor=#1ba1e2;strokeColor=#006EAF;" vertex="1" parent="1">
                    <mxGeometry x="30" y="210" width="90" height="50" as="geometry"/>
                </mxCell>
                <mxCell id="18" value="&lt;span style=&quot;font-size:12.0pt;line-height:107%;&lt;br/&gt;font-family:&amp;quot;Segoe UI&amp;quot;,sans-serif;mso-fareast-font-family:&amp;quot;Times New Roman&amp;quot;;&lt;br/&gt;color:#374151;mso-font-kerning:0pt;mso-ligatures:none;mso-ansi-language:EN-US;&lt;br/&gt;mso-fareast-language:EN-US;mso-bidi-language:AR-SA&quot;&gt;Name&lt;/span&gt;" style="ellipse;whiteSpace=wrap;html=1;fontColor=#ffffff;fillColor=#1ba1e2;strokeColor=#006EAF;" vertex="1" parent="1">
                    <mxGeometry y="160" width="90" height="40" as="geometry"/>
                </mxCell>
                <mxCell id="19" value="&lt;span style=&quot;font-size:12.0pt;line-height:107%;&lt;br/&gt;font-family:&amp;quot;Segoe UI&amp;quot;,sans-serif;mso-fareast-font-family:&amp;quot;Times New Roman&amp;quot;;&lt;br/&gt;color:#374151;mso-font-kerning:0pt;mso-ligatures:none;mso-ansi-language:EN-US;&lt;br/&gt;mso-fareast-language:EN-US;mso-bidi-language:AR-SA&quot;&gt;Address&lt;/span&gt;" style="ellipse;whiteSpace=wrap;html=1;fontColor=#ffffff;fillColor=#1ba1e2;strokeColor=#006EAF;" vertex="1" parent="1">
                    <mxGeometry y="110" width="100" height="40" as="geometry"/>
                </mxCell>
                <mxCell id="20" value="&lt;span style=&quot;font-size:12.0pt;line-height:107%;&lt;br/&gt;font-family:&amp;quot;Segoe UI&amp;quot;,sans-serif;mso-fareast-font-family:&amp;quot;Times New Roman&amp;quot;;&lt;br/&gt;color:#374151;mso-font-kerning:0pt;mso-ligatures:none;mso-ansi-language:EN-US;&lt;br/&gt;mso-fareast-language:EN-US;mso-bidi-language:AR-SA&quot;&gt;TelephoneNumber&lt;/span&gt;" style="ellipse;whiteSpace=wrap;html=1;fontColor=#ffffff;fillColor=#1ba1e2;strokeColor=#006EAF;" vertex="1" parent="1">
                    <mxGeometry x="20" y="70" width="110" height="40" as="geometry"/>
                </mxCell>
                <mxCell id="oqlOQNgqCjXcowSM-4Zz-54" style="edgeStyle=none;html=1;exitX=0.75;exitY=0;exitDx=0;exitDy=0;entryX=0.241;entryY=0.907;entryDx=0;entryDy=0;entryPerimeter=0;fontColor=#FFFFFF;fillColor=#0050ef;strokeColor=#001DBC;" edge="1" parent="1" source="oqlOQNgqCjXcowSM-4Zz-20" target="oqlOQNgqCjXcowSM-4Zz-25">
                    <mxGeometry relative="1" as="geometry"/>
                </mxCell>
                <mxCell id="oqlOQNgqCjXcowSM-4Zz-56" style="edgeStyle=none;html=1;exitX=1;exitY=0.25;exitDx=0;exitDy=0;entryX=0;entryY=1;entryDx=0;entryDy=0;fontColor=#FFFFFF;fillColor=#0050ef;strokeColor=#001DBC;" edge="1" parent="1" source="oqlOQNgqCjXcowSM-4Zz-20" target="oqlOQNgqCjXcowSM-4Zz-24">
                    <mxGeometry relative="1" as="geometry"/>
                </mxCell>
                <mxCell id="oqlOQNgqCjXcowSM-4Zz-58" style="edgeStyle=none;html=1;exitX=1;exitY=0.5;exitDx=0;exitDy=0;entryX=0;entryY=1;entryDx=0;entryDy=0;fontColor=#FFFFFF;fillColor=#0050ef;strokeColor=#001DBC;" edge="1" parent="1" source="oqlOQNgqCjXcowSM-4Zz-20" target="oqlOQNgqCjXcowSM-4Zz-23">
                    <mxGeometry relative="1" as="geometry"/>
                </mxCell>
                <mxCell id="oqlOQNgqCjXcowSM-4Zz-60" style="edgeStyle=none;html=1;exitX=1;exitY=1;exitDx=0;exitDy=0;entryX=0.5;entryY=0;entryDx=0;entryDy=0;fontColor=#FFFFFF;fillColor=#0050ef;strokeColor=#001DBC;" edge="1" parent="1" source="oqlOQNgqCjXcowSM-4Zz-20" target="oqlOQNgqCjXcowSM-4Zz-22">
                    <mxGeometry relative="1" as="geometry"/>
                </mxCell>
                <mxCell id="oqlOQNgqCjXcowSM-4Zz-62" style="edgeStyle=none;html=1;exitX=0.5;exitY=1;exitDx=0;exitDy=0;fontColor=#FFFFFF;fillColor=#0050ef;strokeColor=#001DBC;" edge="1" parent="1" source="oqlOQNgqCjXcowSM-4Zz-20" target="oqlOQNgqCjXcowSM-4Zz-27">
                    <mxGeometry relative="1" as="geometry"/>
                </mxCell>
                <mxCell id="oqlOQNgqCjXcowSM-4Zz-20" value="&lt;span style=&quot;font-size:12.0pt;line-height:107%;&lt;br/&gt;font-family:&amp;quot;Segoe UI&amp;quot;,sans-serif;mso-fareast-font-family:&amp;quot;Times New Roman&amp;quot;;&lt;br/&gt;color:#374151;mso-font-kerning:0pt;mso-ligatures:none;mso-ansi-language:EN-US;&lt;br/&gt;mso-fareast-language:EN-US;mso-bidi-language:AR-SA&quot;&gt;Member&lt;/span&gt;" style="whiteSpace=wrap;html=1;aspect=fixed;fontColor=#ffffff;fillColor=#0050ef;strokeColor=#001DBC;" vertex="1" parent="1">
                    <mxGeometry x="310" y="280" width="80" height="80" as="geometry"/>
                </mxCell>
                <mxCell id="oqlOQNgqCjXcowSM-4Zz-21" value="&lt;span style=&quot;font-size:12.0pt;line-height:107%;&lt;br/&gt;font-family:&amp;quot;Segoe UI&amp;quot;,sans-serif;mso-fareast-font-family:&amp;quot;Times New Roman&amp;quot;;&lt;br/&gt;color:#374151;mso-font-kerning:0pt;mso-ligatures:none;mso-ansi-language:EN-US;&lt;br/&gt;mso-fareast-language:EN-US;mso-bidi-language:AR-SA&quot;&gt;MemberID&lt;/span&gt;" style="ellipse;whiteSpace=wrap;html=1;fontColor=#ffffff;fillColor=#1ba1e2;strokeColor=#006EAF;" vertex="1" parent="1">
                    <mxGeometry x="300" y="200" width="100" height="45" as="geometry"/>
                </mxCell>
                <mxCell id="oqlOQNgqCjXcowSM-4Zz-22" value="&lt;span style=&quot;font-size:12.0pt;line-height:107%;&lt;br/&gt;font-family:&amp;quot;Segoe UI&amp;quot;,sans-serif;mso-fareast-font-family:&amp;quot;Times New Roman&amp;quot;;&lt;br/&gt;color:#374151;mso-font-kerning:0pt;mso-ligatures:none;mso-ansi-language:EN-US;&lt;br/&gt;mso-fareast-language:EN-US;mso-bidi-language:AR-SA&quot;&gt;LastName&lt;/span&gt;" style="ellipse;whiteSpace=wrap;html=1;fontColor=#ffffff;fillColor=#1ba1e2;strokeColor=#006EAF;" vertex="1" parent="1">
                    <mxGeometry x="400" y="380" width="75" height="40" as="geometry"/>
                </mxCell>
                <mxCell id="oqlOQNgqCjXcowSM-4Zz-23" value="&lt;span style=&quot;font-size:12.0pt;line-height:107%;&lt;br/&gt;font-family:&amp;quot;Segoe UI&amp;quot;,sans-serif;mso-fareast-font-family:&amp;quot;Times New Roman&amp;quot;;&lt;br/&gt;color:#374151;mso-font-kerning:0pt;mso-ligatures:none;mso-ansi-language:EN-US;&lt;br/&gt;mso-fareast-language:EN-US;mso-bidi-language:AR-SA&quot;&gt;FirstName&lt;/span&gt;" style="ellipse;whiteSpace=wrap;html=1;fontColor=#ffffff;fillColor=#1ba1e2;strokeColor=#006EAF;" vertex="1" parent="1">
                    <mxGeometry x="425" y="320" width="70" height="40" as="geometry"/>
                </mxCell>
                <mxCell id="oqlOQNgqCjXcowSM-4Zz-24" value="&lt;span style=&quot;font-size:12.0pt;line-height:107%;&lt;br/&gt;font-family:&amp;quot;Segoe UI&amp;quot;,sans-serif;mso-fareast-font-family:&amp;quot;Times New Roman&amp;quot;;&lt;br/&gt;color:#374151;mso-font-kerning:0pt;mso-ligatures:none;mso-ansi-language:EN-US;&lt;br/&gt;mso-fareast-language:EN-US;mso-bidi-language:AR-SA&quot;&gt;Address&lt;/span&gt;" style="ellipse;whiteSpace=wrap;html=1;fontColor=#ffffff;fillColor=#1ba1e2;strokeColor=#006EAF;" vertex="1" parent="1">
                    <mxGeometry x="410" y="270" width="90" height="40" as="geometry"/>
                </mxCell>
                <mxCell id="oqlOQNgqCjXcowSM-4Zz-25" value="&lt;span style=&quot;font-size:12.0pt;line-height:107%;&lt;br/&gt;font-family:&amp;quot;Segoe UI&amp;quot;,sans-serif;mso-fareast-font-family:&amp;quot;Times New Roman&amp;quot;;&lt;br/&gt;color:#374151;mso-font-kerning:0pt;mso-ligatures:none;mso-ansi-language:EN-US;&lt;br/&gt;mso-fareast-language:EN-US;mso-bidi-language:AR-SA&quot;&gt;DateOfBirth&lt;/span&gt;" style="ellipse;whiteSpace=wrap;html=1;fontColor=#ffffff;fillColor=#1ba1e2;strokeColor=#006EAF;" vertex="1" parent="1">
                    <mxGeometry x="400" y="200" width="90" height="50" as="geometry"/>
                </mxCell>
                <mxCell id="oqlOQNgqCjXcowSM-4Zz-27" value="&lt;span style=&quot;font-size:12.0pt;line-height:107%;&lt;br/&gt;font-family:&amp;quot;Segoe UI&amp;quot;,sans-serif;mso-fareast-font-family:&amp;quot;Times New Roman&amp;quot;;&lt;br/&gt;color:#374151;mso-font-kerning:0pt;mso-ligatures:none;mso-ansi-language:EN-US;&lt;br/&gt;mso-fareast-language:EN-US;mso-bidi-language:AR-SA&quot;&gt;Gender&lt;/span&gt;" style="ellipse;whiteSpace=wrap;html=1;fontColor=#ffffff;fillColor=#1ba1e2;strokeColor=#006EAF;" vertex="1" parent="1">
                    <mxGeometry x="320" y="380" width="70" height="40" as="geometry"/>
                </mxCell>
                <mxCell id="oqlOQNgqCjXcowSM-4Zz-63" style="edgeStyle=none;html=1;exitX=0;exitY=0;exitDx=0;exitDy=0;entryX=0.752;entryY=0.173;entryDx=0;entryDy=0;entryPerimeter=0;fontColor=#FFFFFF;fillColor=#0050ef;strokeColor=#001DBC;" edge="1" parent="1" source="oqlOQNgqCjXcowSM-4Zz-28" target="oqlOQNgqCjXcowSM-4Zz-31">
                    <mxGeometry relative="1" as="geometry"/>
                </mxCell>
                <mxCell id="oqlOQNgqCjXcowSM-4Zz-64" style="edgeStyle=none;html=1;exitX=0.25;exitY=1;exitDx=0;exitDy=0;fontColor=#FFFFFF;fillColor=#0050ef;strokeColor=#001DBC;" edge="1" parent="1" source="oqlOQNgqCjXcowSM-4Zz-28" target="oqlOQNgqCjXcowSM-4Zz-29">
                    <mxGeometry relative="1" as="geometry"/>
                </mxCell>
                <mxCell id="oqlOQNgqCjXcowSM-4Zz-65" style="edgeStyle=none;html=1;exitX=0.5;exitY=1;exitDx=0;exitDy=0;entryX=0.321;entryY=0.067;entryDx=0;entryDy=0;entryPerimeter=0;fontColor=#FFFFFF;fillColor=#0050ef;strokeColor=#001DBC;" edge="1" parent="1" source="oqlOQNgqCjXcowSM-4Zz-28" target="oqlOQNgqCjXcowSM-4Zz-30">
                    <mxGeometry relative="1" as="geometry"/>
                </mxCell>
                <mxCell id="oqlOQNgqCjXcowSM-4Zz-28" value="&lt;span style=&quot;font-size:12.0pt;line-height:107%;&lt;br/&gt;font-family:&amp;quot;Segoe UI&amp;quot;,sans-serif;mso-fareast-font-family:&amp;quot;Times New Roman&amp;quot;;&lt;br/&gt;color:#374151;mso-font-kerning:0pt;mso-ligatures:none;mso-ansi-language:EN-US;&lt;br/&gt;mso-fareast-language:EN-US;mso-bidi-language:AR-SA&quot;&gt;Session&lt;/span&gt;" style="whiteSpace=wrap;html=1;aspect=fixed;fontColor=#ffffff;fillColor=#0050ef;strokeColor=#001DBC;" vertex="1" parent="1">
                    <mxGeometry x="180" y="350" width="80" height="80" as="geometry"/>
                </mxCell>
                <mxCell id="oqlOQNgqCjXcowSM-4Zz-29" value="&lt;span style=&quot;font-size:12.0pt;line-height:107%;&lt;br/&gt;font-family:&amp;quot;Segoe UI&amp;quot;,sans-serif;mso-fareast-font-family:&amp;quot;Times New Roman&amp;quot;;&lt;br/&gt;color:#374151;mso-font-kerning:0pt;mso-ligatures:none;mso-ansi-language:EN-US;&lt;br/&gt;mso-fareast-language:EN-US;mso-bidi-language:AR-SA&quot;&gt;TypeOfSport&lt;/span&gt;" style="ellipse;whiteSpace=wrap;html=1;fontColor=#ffffff;fillColor=#1ba1e2;strokeColor=#006EAF;" vertex="1" parent="1">
                    <mxGeometry x="130" y="460" width="90" height="50" as="geometry"/>
                </mxCell>
                <mxCell id="oqlOQNgqCjXcowSM-4Zz-30" value="&lt;span style=&quot;font-size:12.0pt;line-height:107%;&lt;br/&gt;font-family:&amp;quot;Segoe UI&amp;quot;,sans-serif;mso-fareast-font-family:&amp;quot;Times New Roman&amp;quot;;&lt;br/&gt;color:#374151;mso-font-kerning:0pt;mso-ligatures:none;mso-ansi-language:EN-US;&lt;br/&gt;mso-fareast-language:EN-US;mso-bidi-language:AR-SA&quot;&gt;Schedule&lt;/span&gt;" style="ellipse;whiteSpace=wrap;html=1;fontColor=#ffffff;fillColor=#1ba1e2;strokeColor=#006EAF;" vertex="1" parent="1">
                    <mxGeometry x="230" y="460" width="80" height="50" as="geometry"/>
                </mxCell>
                <mxCell id="oqlOQNgqCjXcowSM-4Zz-31" value="&lt;span style=&quot;font-size:12.0pt;line-height:107%;&lt;br/&gt;font-family:&amp;quot;Segoe UI&amp;quot;,sans-serif;mso-fareast-font-family:&amp;quot;Times New Roman&amp;quot;;&lt;br/&gt;color:#374151;mso-font-kerning:0pt;mso-ligatures:none;mso-ansi-language:EN-US;&lt;br/&gt;mso-fareast-language:EN-US;mso-bidi-language:AR-SA&quot;&gt;SessionID&lt;/span&gt;" style="ellipse;whiteSpace=wrap;html=1;fontColor=#ffffff;fillColor=#1ba1e2;strokeColor=#006EAF;" vertex="1" parent="1">
                    <mxGeometry x="60" y="410" width="90" height="50" as="geometry"/>
                </mxCell>
                <mxCell id="oqlOQNgqCjXcowSM-4Zz-66" style="edgeStyle=none;html=1;exitX=0.5;exitY=1;exitDx=0;exitDy=0;entryX=0.963;entryY=0.347;entryDx=0;entryDy=0;entryPerimeter=0;fontColor=#FFFFFF;fillColor=#0050ef;strokeColor=#001DBC;" edge="1" parent="1" source="oqlOQNgqCjXcowSM-4Zz-32" target="oqlOQNgqCjXcowSM-4Zz-35">
                    <mxGeometry relative="1" as="geometry"/>
                </mxCell>
                <mxCell id="oqlOQNgqCjXcowSM-4Zz-67" style="edgeStyle=none;html=1;exitX=0.75;exitY=1;exitDx=0;exitDy=0;entryX=1;entryY=0;entryDx=0;entryDy=0;fontColor=#FFFFFF;fillColor=#0050ef;strokeColor=#001DBC;" edge="1" parent="1" source="oqlOQNgqCjXcowSM-4Zz-32" target="oqlOQNgqCjXcowSM-4Zz-34">
                    <mxGeometry relative="1" as="geometry"/>
                </mxCell>
                <mxCell id="oqlOQNgqCjXcowSM-4Zz-68" style="edgeStyle=none;html=1;exitX=1;exitY=1;exitDx=0;exitDy=0;fontColor=#FFFFFF;fillColor=#0050ef;strokeColor=#001DBC;" edge="1" parent="1" source="oqlOQNgqCjXcowSM-4Zz-32" target="oqlOQNgqCjXcowSM-4Zz-33">
                    <mxGeometry relative="1" as="geometry"/>
                </mxCell>
                <mxCell id="oqlOQNgqCjXcowSM-4Zz-69" style="edgeStyle=none;html=1;exitX=1;exitY=0.25;exitDx=0;exitDy=0;fontColor=#FFFFFF;fillColor=#0050ef;strokeColor=#001DBC;" edge="1" parent="1" source="oqlOQNgqCjXcowSM-4Zz-32">
                    <mxGeometry relative="1" as="geometry">
                        <mxPoint x="540" y="520" as="targetPoint"/>
                    </mxGeometry>
                </mxCell>
                <mxCell id="oqlOQNgqCjXcowSM-4Zz-70" style="edgeStyle=none;html=1;exitX=1;exitY=1;exitDx=0;exitDy=0;entryX=0;entryY=0;entryDx=0;entryDy=0;fontColor=#FFFFFF;fillColor=#0050ef;strokeColor=#001DBC;" edge="1" parent="1" source="oqlOQNgqCjXcowSM-4Zz-32" target="oqlOQNgqCjXcowSM-4Zz-36">
                    <mxGeometry relative="1" as="geometry"/>
                </mxCell>
                <mxCell id="oqlOQNgqCjXcowSM-4Zz-32" value="&lt;span style=&quot;font-size:12.0pt;line-height:107%;&lt;br/&gt;font-family:&amp;quot;Segoe UI&amp;quot;,sans-serif;mso-fareast-font-family:&amp;quot;Times New Roman&amp;quot;;&lt;br/&gt;color:#374151;mso-font-kerning:0pt;mso-ligatures:none;mso-ansi-language:EN-US;&lt;br/&gt;mso-fareast-language:EN-US;mso-bidi-language:AR-SA&quot;&gt;Coach&lt;/span&gt;" style="whiteSpace=wrap;html=1;aspect=fixed;fontColor=#ffffff;fillColor=#0050ef;strokeColor=#001DBC;" vertex="1" parent="1">
                    <mxGeometry x="385" y="480" width="80" height="80" as="geometry"/>
                </mxCell>
                <mxCell id="oqlOQNgqCjXcowSM-4Zz-33" value="&lt;span&gt;CoachID&lt;/span&gt;" style="ellipse;whiteSpace=wrap;html=1;fontColor=#ffffff;fillColor=#1ba1e2;strokeColor=#006EAF;" vertex="1" parent="1">
                    <mxGeometry x="425" y="640" width="85" height="50" as="geometry"/>
                </mxCell>
                <mxCell id="oqlOQNgqCjXcowSM-4Zz-34" value="&lt;span style=&quot;font-size:12.0pt;line-height:107%;&lt;br/&gt;font-family:&amp;quot;Segoe UI&amp;quot;,sans-serif;mso-fareast-font-family:&amp;quot;Times New Roman&amp;quot;;&lt;br/&gt;color:#374151;mso-font-kerning:0pt;mso-ligatures:none;mso-ansi-language:EN-US;&lt;br/&gt;mso-fareast-language:EN-US;mso-bidi-language:AR-SA&quot;&gt;LastName&lt;/span&gt;" style="ellipse;whiteSpace=wrap;html=1;fontColor=#ffffff;fillColor=#1ba1e2;strokeColor=#006EAF;" vertex="1" parent="1">
                    <mxGeometry x="340" y="620" width="80" height="50" as="geometry"/>
                </mxCell>
                <mxCell id="oqlOQNgqCjXcowSM-4Zz-35" value="&lt;span style=&quot;font-size:12.0pt;line-height:107%;&lt;br/&gt;font-family:&amp;quot;Segoe UI&amp;quot;,sans-serif;mso-fareast-font-family:&amp;quot;Times New Roman&amp;quot;;&lt;br/&gt;color:#374151;mso-font-kerning:0pt;mso-ligatures:none;mso-ansi-language:EN-US;&lt;br/&gt;mso-fareast-language:EN-US;mso-bidi-language:AR-SA&quot;&gt;FirstName&lt;/span&gt;" style="ellipse;whiteSpace=wrap;html=1;fontColor=#ffffff;fillColor=#1ba1e2;strokeColor=#006EAF;" vertex="1" parent="1">
                    <mxGeometry x="280" y="560" width="80" height="50" as="geometry"/>
                </mxCell>
                <mxCell id="oqlOQNgqCjXcowSM-4Zz-36" value="&lt;span style=&quot;font-size:12.0pt;line-height:107%;&lt;br/&gt;font-family:&amp;quot;Segoe UI&amp;quot;,sans-serif;mso-fareast-font-family:&amp;quot;Times New Roman&amp;quot;;&lt;br/&gt;color:#374151;mso-font-kerning:0pt;mso-ligatures:none;mso-ansi-language:EN-US;&lt;br/&gt;mso-fareast-language:EN-US;mso-bidi-language:AR-SA&quot;&gt;Age&lt;/span&gt;" style="ellipse;whiteSpace=wrap;html=1;fontColor=#ffffff;fillColor=#1ba1e2;strokeColor=#006EAF;" vertex="1" parent="1">
                    <mxGeometry x="490" y="600" width="80" height="50" as="geometry"/>
                </mxCell>
                <mxCell id="oqlOQNgqCjXcowSM-4Zz-37" value="&lt;span style=&quot;font-size:12.0pt;line-height:107%;&lt;br/&gt;font-family:&amp;quot;Segoe UI&amp;quot;,sans-serif;mso-fareast-font-family:&amp;quot;Times New Roman&amp;quot;;&lt;br/&gt;color:#374151;mso-font-kerning:0pt;mso-ligatures:none;mso-ansi-language:EN-US;&lt;br/&gt;mso-fareast-language:EN-US;mso-bidi-language:AR-SA&quot;&gt;Specialty&lt;/span&gt;" style="ellipse;whiteSpace=wrap;html=1;fontColor=#ffffff;fillColor=#1ba1e2;strokeColor=#006EAF;" vertex="1" parent="1">
                    <mxGeometry x="485" y="525" width="90" height="50" as="geometry"/>
                </mxCell>
                <mxCell id="oqlOQNgqCjXcowSM-4Zz-38" style="edgeStyle=none;html=1;exitX=1;exitY=0.5;exitDx=0;exitDy=0;fontColor=#FFFFFF;" edge="1" parent="1" source="oqlOQNgqCjXcowSM-4Zz-33" target="oqlOQNgqCjXcowSM-4Zz-33">
                    <mxGeometry relative="1" as="geometry"/>
                </mxCell>
                <mxCell id="oqlOQNgqCjXcowSM-4Zz-52" value="" style="endArrow=none;html=1;fontColor=#FFFFFF;exitX=0.25;exitY=0;exitDx=0;exitDy=0;fillColor=#0050ef;strokeColor=#001DBC;" edge="1" parent="1" source="oqlOQNgqCjXcowSM-4Zz-20">
                    <mxGeometry width="50" height="50" relative="1" as="geometry">
                        <mxPoint x="290" y="280" as="sourcePoint"/>
                        <mxPoint x="340" y="240" as="targetPoint"/>
                    </mxGeometry>
                </mxCell>
                <mxCell id="oqlOQNgqCjXcowSM-4Zz-71" value="" style="endArrow=classic;startArrow=classic;html=1;fontColor=#FFFFFF;" edge="1" parent="1">
                    <mxGeometry width="50" height="50" relative="1" as="geometry">
                        <mxPoint x="290" y="280" as="sourcePoint"/>
                        <mxPoint x="340" y="230" as="targetPoint"/>
                    </mxGeometry>
                </mxCell>
                <mxCell id="oqlOQNgqCjXcowSM-4Zz-73" value="" style="shape=flexArrow;endArrow=classic;startArrow=classic;html=1;fontColor=#FFFFFF;exitX=0;exitY=0;exitDx=0;exitDy=0;startWidth=9;startSize=7.6;fillColor=#d80073;strokeColor=#A50040;" edge="1" parent="1" source="oqlOQNgqCjXcowSM-4Zz-20" target="16">
                    <mxGeometry width="100" height="100" relative="1" as="geometry">
                        <mxPoint x="200" y="300" as="sourcePoint"/>
                        <mxPoint x="300" y="200" as="targetPoint"/>
                    </mxGeometry>
                </mxCell>
                <mxCell id="oqlOQNgqCjXcowSM-4Zz-74" value="" style="shape=flexArrow;endArrow=classic;startArrow=classic;html=1;fontColor=#FFFFFF;width=3;endSize=7.89;entryX=0.946;entryY=0.65;entryDx=0;entryDy=0;entryPerimeter=0;fillColor=#d80073;strokeColor=#A50040;" edge="1" parent="1" source="oqlOQNgqCjXcowSM-4Zz-32" target="oqlOQNgqCjXcowSM-4Zz-28">
                    <mxGeometry width="100" height="100" relative="1" as="geometry">
                        <mxPoint x="270" y="470" as="sourcePoint"/>
                        <mxPoint x="370" y="370" as="targetPoint"/>
                        <Array as="points">
                            <mxPoint x="370" y="480"/>
                        </Array>
                    </mxGeometry>
                </mxCell>
                <mxCell id="oqlOQNgqCjXcowSM-4Zz-75" value="" style="endArrow=classic;html=1;fontColor=#FFFFFF;entryX=0;entryY=0.5;entryDx=0;entryDy=0;fillColor=#d80073;strokeColor=#A50040;" edge="1" parent="1" target="oqlOQNgqCjXcowSM-4Zz-20">
                    <mxGeometry relative="1" as="geometry">
                        <mxPoint x="240" y="350" as="sourcePoint"/>
                        <mxPoint x="340" y="350" as="targetPoint"/>
                    </mxGeometry>
                </mxCell>
                <mxCell id="oqlOQNgqCjXcowSM-4Zz-76" value="Label" style="edgeLabel;resizable=0;html=1;align=center;verticalAlign=middle;fontColor=#FFFFFF;" connectable="0" vertex="1" parent="oqlOQNgqCjXcowSM-4Zz-75">
                    <mxGeometry relative="1" as="geometry"/>
                </mxCell>
            </root>
        </mxGraphModel>
    </diagram>
    <diagram id="T5QlJbRkO9VWY_PLz1Tu" name="Page-2">
        <mxGraphModel dx="460" dy="427" grid="1" gridSize="10" guides="1" tooltips="1" connect="1" arrows="1" fold="1" page="1" pageScale="1" pageWidth="850" pageHeight="1100" math="0" shadow="0">
            <root>
                <mxCell id="0"/>
                <mxCell id="1" parent="0"/>
            </root>
        </mxGraphModel>
    </diagram>
</mxfile>